<svg width="711" height="555" viewBox="0 0 711 555" fill="none" xmlns="http://www.w3.org/2000/svg">
<path d="M696.118 24.6841L696.014 24.5851C695.889 24.4706 695.754 24.3247 695.644 24.231C695.352 24.0383 695.045 23.8664 694.727 23.7206C693.873 23.0539 692.826 22.6789 691.743 22.6372C691.436 22.5487 691.118 22.4862 690.8 22.4445H616.503C616.336 22.4445 616.201 22.5279 616.039 22.5383H616.034C615.586 22.5383 615.133 22.5852 614.691 22.6685C614.456 22.7258 614.232 22.8664 614.003 22.9445V22.9497C613.763 23.0331 613.524 23.1268 613.289 23.2362C602.196 28.1373 596.17 57.1895 595.768 107.7H561.43C561.268 107.325 561.127 106.961 560.95 106.58C559.164 98.4189 548.502 95.8148 542.169 95.0283C538.929 93.6012 535.237 93.6324 532.023 95.1116C529.294 93.122 526.028 92.0023 522.659 91.898C514.351 93.4449 506.976 98.1792 502.117 105.091C501.68 105.934 501.3 106.804 500.982 107.7H424.154C418.341 106.002 412.508 104.549 407.023 103.309C399.502 101.606 393.43 100.054 389.726 99.0697H389.731C394.262 92.4656 397.846 85.2577 400.382 77.6577C406.215 61.1844 406.117 43.1884 400.096 26.7831C395.981 15.6997 387.148 7.0284 375.992 3.12707C368.955 0.272935 361.289 -0.648928 353.778 0.450006C346.263 1.55417 339.185 4.64787 333.268 9.4084C321.643 18.3824 316.752 28.9191 315.814 46.9924V46.9872C313.757 63.2272 316.34 79.7112 323.267 94.5392C323.887 95.7788 324.679 97.1485 325.58 98.5704C322.33 99.4558 315.408 101.273 306.419 103.31C300.939 104.544 295.106 106.003 289.288 107.701H212.46C212.137 106.81 211.762 105.94 211.325 105.097C206.465 98.1851 199.09 93.4455 190.783 91.8987C187.408 92.0028 184.143 93.1226 181.419 95.1123C178.247 93.6592 174.606 93.6071 171.393 94.9664C165.085 95.2373 159.101 97.8623 154.633 102.326C153.513 103.748 152.732 105.404 152.336 107.164C152.179 107.331 152.023 107.518 151.872 107.696L115.476 107.701C115.075 57.1954 109.049 28.1381 97.9548 23.2367C97.7205 23.1274 97.4861 23.0336 97.2413 22.9503C97.0069 22.8722 96.7882 22.7316 96.5538 22.6743V22.6691C96.1059 22.5805 95.6476 22.5388 95.1945 22.5336C95.0382 22.5232 94.9028 22.4451 94.7465 22.4451H20.4439C20.1262 22.4868 19.8137 22.5493 19.5064 22.6326C18.9491 22.6795 18.397 22.7888 17.8657 22.9659C17.3917 23.1638 16.9438 23.419 16.5272 23.7159C16.2042 23.8618 15.897 24.0336 15.6001 24.2316C15.4907 24.3253 15.3553 24.4711 15.2303 24.5857L15.1261 24.6847C11.1939 28.5701 0.699463 45.5967 0.699463 116.487C0.699463 195.435 8.37133 202.695 11.2568 205.43C12.111 206.237 13.1109 206.867 14.2047 207.295C14.8505 207.519 15.5276 207.659 16.2151 207.706C16.5067 207.784 16.8088 207.841 17.1109 207.888H91.4176H91.4124C92.1415 207.888 92.8602 207.784 93.5582 207.576C93.7562 207.518 93.9905 207.409 94.2041 207.326L94.3968 207.248C101.058 204.539 114.246 190.445 115.397 122.633H147.85C148.152 126.164 148.881 129.643 150.027 132.992C151.611 137.805 157.387 150.216 164.079 164.58C168.402 173.872 172.949 183.627 176.47 191.591H176.465C184.116 206.591 194.798 219.836 207.839 230.492C215.011 236.555 223.933 240.175 233.303 240.815C233.642 240.815 233.975 240.81 234.293 240.784C255.85 239.581 270.684 213.732 272.892 209.648V209.653C274.36 207.695 275.642 205.606 276.725 203.408C278.537 208.424 280.048 213.539 281.235 218.736C283.897 231.335 284.485 244.288 282.965 257.075C279.162 263.158 273.386 267.752 266.604 270.091C253.104 275.627 240.126 282.351 227.807 290.179C217.672 294.918 209.427 302.929 204.386 312.924C195.386 328.132 196.954 348.107 209.052 372.299C214.693 383.58 221.469 397.872 227.479 410.741H185.375C182.99 410.741 180.75 411.877 179.349 413.804L85.3853 542.309C83.7238 544.58 83.4842 547.591 84.7551 550.096C86.0259 552.606 88.5988 554.184 91.4113 554.184H622.025C624.837 554.184 627.41 552.606 628.681 550.096C629.957 547.591 629.712 544.58 628.051 542.309L534.092 413.804C532.686 411.877 530.446 410.741 528.066 410.741H485.962C491.967 397.872 498.743 383.58 504.389 372.299C516.488 348.105 518.055 328.132 509.055 312.924H509.05C504.014 302.929 495.764 294.924 485.634 290.179C473.316 282.351 460.337 275.632 446.837 270.091C440.056 267.752 434.285 263.164 430.473 257.086C428.957 244.294 429.541 231.34 432.202 218.736C433.395 213.544 434.9 208.424 436.712 203.414C437.744 205.476 438.942 207.445 440.296 209.304C442.462 214.862 454.197 241.159 482.317 241.159C515.041 241.159 529.853 207.686 536.973 191.591L542.26 179.7C552.181 157.424 559.338 141.184 561.041 135.055L561.708 132.753L561.713 132.748C562.765 129.451 563.494 126.065 563.89 122.633H595.849C597 190.45 610.187 204.545 616.849 207.248L617.041 207.326C617.255 207.409 617.484 207.513 617.687 207.576V207.571C618.38 207.784 619.104 207.888 619.833 207.888H694.136C694.438 207.841 694.74 207.784 695.031 207.706C695.719 207.659 696.396 207.519 697.042 207.295C698.135 206.868 699.136 206.237 699.99 205.43C702.875 202.696 710.547 195.435 710.547 116.487C710.547 45.5967 700.047 28.5701 696.12 24.6847L696.118 24.6841ZM631.102 192.951C636.024 174.836 637.352 143.044 637.415 115.205L637.425 115.164L637.415 115.122C637.415 114.445 637.425 113.758 637.425 113.086C637.425 78.0497 634.644 52.315 629.451 37.3777H686.716C689.477 43.3152 695.617 62.591 695.617 116.487C695.617 170.159 691.966 187.623 690.19 192.956L631.102 192.951ZM616.451 45.4441C621.071 65.8601 623.092 86.7828 622.462 107.704H610.686C610.066 86.7921 612.004 65.8868 616.451 45.4441ZM500.425 122.637C501.081 124.325 501.982 125.903 503.102 127.325C507.05 131.346 511.503 134.835 516.347 137.71C512.019 145.252 504.784 157.637 500.784 163.237C498.701 166.148 496.44 169.638 494.289 172.966C493.763 173.774 493.175 174.685 492.57 175.612C490.727 172.513 489.128 169.82 488.852 169.352H488.846C481.023 154.278 471.753 139.997 461.164 126.712C459.768 125.243 458.263 123.884 456.659 122.639L500.425 122.637ZM356.718 129.747C351.468 130.158 346.296 128.273 342.535 124.585C339.504 120.898 337.692 116.361 337.343 111.596C342.791 116.143 349.614 118.715 356.707 118.898H356.722C363.551 118.856 370.222 116.815 375.905 113.028C375.389 117.283 373.65 121.299 370.895 124.585C367.139 128.278 361.968 130.158 356.718 129.747ZM389.494 46.2734C390.192 55.2526 389.088 64.2841 386.249 72.8254C383.046 82.1796 373.765 103.94 356.713 103.961H356.708C346.885 103.961 338.713 92.0396 336.625 87.8628C331.391 76.7325 329.292 64.3788 330.547 52.1441C339.912 47.9045 365.569 38.2641 389.495 46.2744L389.494 46.2734ZM342.395 21.2268C347.635 17.206 354.026 14.9716 360.625 14.8518C363.812 14.8258 366.969 15.4768 369.88 16.7633C376.479 18.7217 381.932 23.3884 384.875 29.607C367.276 26.8049 349.249 28.7268 332.635 35.1748C334.176 29.5341 337.63 24.607 342.395 21.2268ZM224.63 169.293C224.448 169.601 223.51 171.189 222.245 173.319C219.88 169.231 217.146 164.752 214.536 161.106C210.495 155.45 202.687 144.387 197.708 137.319H197.703C202.328 134.548 206.573 131.194 210.333 127.33C211.453 125.908 212.359 124.33 213.016 122.642H256.781C255.177 123.887 253.672 125.246 252.271 126.715C241.698 139.981 232.437 154.236 224.63 169.293ZM21.0567 192.96C19.2807 187.627 15.6297 170.163 15.6297 116.491C15.6297 62.5948 21.7703 43.3241 24.5307 37.3814L81.7961 37.3866C76.5982 52.324 73.8221 78.0586 73.8221 113.095C73.8221 113.767 73.8273 114.454 73.8325 115.131L73.8221 115.173L73.8325 115.214C73.895 143.053 75.2232 174.845 80.145 192.96L21.0567 192.96ZM94.7914 45.4534C99.2393 65.8961 101.177 86.8028 100.557 107.713H88.781C88.1508 86.7921 90.1717 65.8694 94.7914 45.4534ZM93.2133 183.547C90.031 163.407 88.5622 143.031 88.8226 122.64H100.494C100.979 143.187 98.5309 163.692 93.2133 183.547ZM233.453 225.891C227.552 225.188 221.979 222.802 217.391 219.021C206.078 209.886 196.787 198.49 190.12 185.557C186.568 177.515 181.979 167.661 177.61 158.286C171.662 145.51 165.511 132.297 164.203 128.333C161.974 121.557 162.599 118.286 163.088 117.448C163.135 117.422 163.161 117.38 163.208 117.354H163.213C163.786 117.015 164.312 116.599 164.771 116.119C164.906 115.984 165.083 115.895 165.208 115.755H165.213C165.771 115.114 166.213 114.38 166.526 113.593C166.594 113.427 166.588 113.234 166.64 113.062H166.646C166.854 112.474 166.989 111.859 167.047 111.234C169.307 110.38 171.687 109.875 174.099 109.739C174.864 109.698 175.614 109.547 176.328 109.281C176.989 109.682 177.62 110.14 178.198 110.651C180.14 112.458 182.89 113.104 185.432 112.343C187.969 111.583 189.917 109.536 190.547 106.963C193.578 108.328 196.297 110.307 198.515 112.781C199.083 113.687 199.401 114.729 199.427 115.802C199.443 116.598 199.177 117.374 198.672 117.994C193.906 122.078 188.739 125.661 183.25 128.697C181.453 129.755 180.177 131.52 179.74 133.557C179.297 135.598 179.73 137.723 180.927 139.432C180.927 139.432 196.13 161.03 202.375 169.781H202.381C207.11 176.859 211.433 184.202 215.329 191.77C216.563 194.187 219.011 195.739 221.724 195.828C221.808 195.833 221.891 195.833 221.974 195.833H221.969C224.594 195.833 227.027 194.458 228.375 192.208C228.693 191.682 229.438 190.421 230.375 188.854C236.625 197.885 245.225 205.042 255.245 209.542C250.016 216.75 241.839 225.416 233.453 225.891ZM217.234 320.541C220.62 313.526 226.162 307.776 233.047 304.135C254.907 298.536 271.692 314.036 279.458 329.047H279.453C282.781 336.542 285.328 344.359 287.063 352.375C279.177 350.953 271.495 348.578 264.188 345.307C261.464 344.052 258.261 344.547 256.042 346.562C253.828 348.573 253.026 351.719 254.016 354.541C258.276 366.911 261.277 379.677 262.98 392.651C264.829 407.287 267.745 421.771 271.709 435.984C266.105 436.578 260.443 436.161 254.985 434.755C253.24 430.922 250.032 423.896 246.063 415.312L246.058 415.297C239.047 400.135 229.782 380.365 222.412 365.625C212.73 346.265 210.99 331.093 217.234 320.541ZM356.621 355.12L356.72 355.099L356.814 355.12C376.439 355.167 395.855 359.177 413.893 366.912C414.215 367.006 414.544 367.079 414.877 367.125C415.278 367.303 415.689 367.438 416.117 367.537C416.367 367.568 416.637 367.542 416.887 367.568C416.929 367.568 416.971 367.594 417.018 367.594L417.101 367.573V367.578C425.142 367.964 433.189 366.865 440.836 364.339C438.315 373.188 436.554 382.235 435.575 391.38C434.893 397.891 433.836 404.359 432.414 410.75H281.027C279.6 404.359 278.543 397.89 277.86 391.38C276.881 382.234 275.121 373.187 272.6 364.339C280.246 366.865 288.293 367.964 296.335 367.578L296.418 367.599C296.46 367.599 296.501 367.573 296.548 367.573C296.803 367.547 297.074 367.573 297.324 367.542L297.319 367.537C297.762 367.438 298.189 367.297 298.6 367.115C298.923 367.063 299.241 366.995 299.553 366.907C317.584 359.157 336.996 355.146 356.627 355.12L356.621 355.12ZM458.585 450.037C462.476 459.428 469.179 467.387 477.773 472.819C494.257 483.756 494.997 488.297 495.024 488.428H495.019C494.112 491.782 491.493 494.402 488.138 495.314C471.513 495.314 468.253 493.308 458.414 485.657C451.258 480.355 443.373 476.121 434.998 473.079C435.696 465.532 436.795 458.027 438.29 450.601C445.035 451.632 451.91 451.444 458.587 450.038L458.585 450.037ZM254.852 450.037C261.529 451.444 268.404 451.631 275.149 450.6C276.644 458.027 277.743 465.532 278.441 473.079C270.071 476.12 262.181 480.355 255.025 485.657C245.192 493.308 241.931 495.313 225.306 495.313H225.301C221.968 494.407 219.353 491.813 218.416 488.485C218.442 488.297 219.181 483.75 235.666 472.813L235.671 472.818C244.265 467.386 250.969 459.427 254.854 450.037L254.852 450.037ZM524.279 425.683L607.32 539.256H106.133L189.18 425.683H234.42C237.816 433.053 240.514 438.969 241.868 441.948H241.862C239.519 449.677 234.368 456.251 227.425 460.375C210.878 471.349 203.498 479.995 203.498 488.427C203.983 494.046 206.436 499.317 210.431 503.312C214.42 507.302 219.691 509.755 225.311 510.244C239.504 511.661 253.633 507.01 264.201 497.437C271.425 492.25 279.431 488.26 287.92 485.619C290.727 484.796 292.795 482.406 293.212 479.51C293.03 465.999 291.321 452.557 288.129 439.431C288.113 439.358 288.056 439.306 288.035 439.239C288.014 439.145 288.04 439.056 288.014 438.968C287.977 438.843 286.405 433.296 284.504 425.681H428.957C427.051 433.296 425.483 438.838 425.446 438.968C425.42 439.062 425.446 439.15 425.426 439.239C425.41 439.312 425.347 439.364 425.332 439.431C422.134 452.556 420.431 465.999 420.243 479.51C420.655 482.411 422.728 484.802 425.545 485.619C434.035 488.255 442.04 492.244 449.253 497.437C459.826 507.01 473.951 511.666 488.144 510.244C493.769 509.755 499.035 507.302 503.029 503.312C507.019 499.317 509.472 494.046 509.962 488.427C509.962 480 502.581 471.348 486.035 460.375C479.092 456.25 473.936 449.682 471.587 441.959C472.941 438.985 475.639 433.063 479.04 425.683H524.279ZM480.3 304.115C487.237 307.729 492.815 313.495 496.207 320.541C502.451 331.094 500.712 346.265 491.029 365.624C483.66 380.364 474.393 400.135 467.384 415.296L467.379 415.312C463.41 423.89 460.202 430.921 458.457 434.749V434.754C453.004 436.155 447.337 436.572 441.733 435.978C445.697 421.77 448.613 407.285 450.462 392.65C452.165 379.676 455.17 366.91 459.431 354.541C460.415 351.718 459.619 348.572 457.4 346.562C455.181 344.546 451.978 344.051 449.259 345.306C441.947 348.577 434.264 350.947 426.384 352.374C428.114 344.353 430.666 336.536 433.989 329.036C441.739 314.052 458.482 298.599 480.3 304.115ZM441.852 284.172C446.67 285.969 451.367 288.073 455.92 290.464C440.451 295.959 427.795 307.365 420.723 322.177C416.702 331.078 413.644 340.385 411.603 349.937C394.045 343.562 375.52 340.265 356.843 340.192L356.822 340.187H356.728H356.634L356.614 340.192C337.931 340.265 319.406 343.562 301.848 349.937C299.812 340.385 296.755 331.082 292.729 322.182C285.661 307.365 273.005 295.958 257.535 290.458C262.087 288.068 266.785 285.969 271.603 284.172C280.291 281.089 287.89 275.526 293.447 268.177C314.067 274.026 335.311 277.386 356.729 278.177C378.145 277.386 399.39 274.026 420.005 268.172C425.567 275.526 433.161 281.089 441.854 284.172L441.852 284.172ZM431.466 179.651C424.914 190.719 420.242 202.791 417.654 215.391C414.91 228.063 414.066 241.079 415.154 254C396.108 259.349 376.498 262.453 356.728 263.245C336.957 262.453 317.348 259.349 298.301 254C299.384 241.078 298.546 228.063 295.796 215.391C293.207 202.792 288.541 190.713 281.984 179.651C280.333 177.177 277.364 175.922 274.437 176.453C271.51 176.984 269.177 179.203 268.499 182.104C267.291 187.167 265.567 192.088 263.354 196.797C252.567 192.599 243.89 184.282 239.239 173.683C246.046 160.688 254.072 148.371 263.212 136.896C273.249 126.12 300.696 119.923 309.718 117.885C314.775 116.739 319.192 115.661 322.707 114.771C323.613 122.104 326.66 129.005 331.478 134.604C338.29 141.078 347.327 144.682 356.729 144.682C366.125 144.682 375.161 141.078 381.979 134.604C386.792 129.005 389.844 122.104 390.745 114.771C394.266 115.661 398.677 116.74 403.74 117.885C412.761 119.922 440.204 126.109 450.24 136.896H450.245C459.386 148.37 467.412 160.688 474.218 173.683C469.562 184.282 460.885 192.595 450.098 196.797C447.885 192.089 446.161 187.167 444.958 182.104C444.281 179.203 441.947 176.984 439.015 176.453C436.088 175.922 433.124 177.177 431.468 179.651H431.466ZM547.384 128.541L546.66 131.052C545.118 136.593 535.972 157.125 528.618 173.62L523.316 185.557C513.973 206.683 502.535 226.229 482.322 226.229L482.327 226.235C477.082 225.99 471.993 224.36 467.587 221.505C463.175 218.656 459.608 214.682 457.233 210C467.649 205.5 476.597 198.177 483.071 188.86C484.004 190.433 484.754 191.683 485.071 192.214V192.209C486.514 194.49 488.983 195.923 491.675 196.037H491.853C497.155 196.037 499.827 191.912 506.831 181.073C508.857 177.943 510.977 174.657 512.935 171.917C519.331 162.953 532.362 139.777 532.914 138.792H532.919C534.904 135.25 533.695 130.766 530.195 128.708C524.706 125.661 519.539 122.073 514.769 117.995C514.263 117.375 513.998 116.599 514.013 115.802C514.045 114.729 514.362 113.682 514.93 112.776C517.149 110.312 519.857 108.333 522.878 106.969L522.904 106.984C523.545 109.542 525.487 111.568 528.008 112.323C530.534 113.083 533.268 112.458 535.216 110.682C535.805 110.156 536.44 109.687 537.117 109.281C537.737 109.51 538.388 109.656 539.044 109.719C541.706 109.953 544.326 110.541 546.826 111.469C546.888 111.64 547.013 111.781 547.086 111.948C547.133 112.057 547.123 112.172 547.175 112.276C549.69 117.39 549.768 123.37 547.383 128.547L547.384 128.541ZM622.42 122.635L622.425 122.64C622.685 143.031 621.217 163.406 618.034 183.547C612.717 163.698 610.269 143.187 610.753 122.64L622.42 122.635Z" fill="black"/>
</svg>
