<svg width="713" height="730" viewBox="0 0 713 730" fill="none" xmlns="http://www.w3.org/2000/svg">
<path d="M185.736 586.003C183.351 586.003 181.111 587.138 179.71 589.066L85.7516 717.576L85.7464 717.571C84.0849 719.842 83.8453 722.852 85.1162 725.357C86.387 727.868 88.9599 729.446 91.7724 729.446H622.386C625.198 729.446 627.771 727.868 629.042 725.357C630.318 722.852 630.073 719.842 628.412 717.571L534.453 589.066C533.047 587.139 530.807 586.003 528.427 586.003H468.971C468.971 586.003 469.162 589.315 469.388 593.224C469.536 595.797 469.7 598.628 469.834 600.945H524.64L607.681 714.518H106.494L189.541 600.945H234.781L246.307 601.003L247.462 586.003H185.736Z" fill="black"/>
<path d="M420.5 586H295.052L295.603 600.94H420L420.5 586Z" fill="black"/>
<path fill-rule="evenodd" clip-rule="evenodd" d="M221.636 205.468C221.843 205.83 222.048 206.188 222.007 206.185C222.089 206.19 222.17 206.19 222.252 206.19L221.253 204.726C221.211 204.726 221.425 205.099 221.636 205.468Z" fill="black"/>
<path fill-rule="evenodd" clip-rule="evenodd" d="M256.508 433.154C254.729 454.66 253.049 474.965 251.621 480.664C246.644 509.218 245.028 538.25 246.806 567.18C248.136 581.028 247.578 594.987 245.158 608.685L245.151 608.692V608.705C244.23 612.994 242.899 617.187 241.173 621.216C238.811 626.207 236.086 631.015 233.003 635.597C227.61 642.352 224.132 650.432 222.938 658.991C222.938 677.395 245.56 677.395 254.08 677.395C272.926 677.395 285.236 671.1 291.712 658.154V658.16C298.24 646.927 300.446 633.694 297.916 620.956C295.651 606.913 294.723 592.681 295.145 578.463C296.085 570.637 298.091 562.973 301.108 555.686C306.754 541.74 310.025 526.95 310.784 511.921L310.777 506.651C310.725 485.01 310.699 473.095 318.844 458.286C321.595 453.29 326.066 446.346 331.245 438.318V438.311C340.966 423.801 349.901 408.779 358.006 393.307C366.112 408.778 375.048 423.8 384.768 438.311C389.946 446.345 394.418 453.282 397.169 458.292C406.209 474.716 407.734 485.665 407.734 510.213H407.74C408.292 523.77 410.901 537.164 415.463 549.941C418.688 558.455 420.518 567.436 420.881 576.535C420.612 580.884 420.482 585.841 420.347 590.974L420.343 591.156H420.349C420.433 601.136 419.681 611.104 418.097 620.961C415.566 633.699 417.773 646.925 424.301 658.158C430.777 671.105 443.089 677.399 461.932 677.399C470.453 677.399 493.075 677.399 493.075 658.996V658.989C491.881 650.43 488.409 642.35 483.01 635.595C479.927 631.014 477.202 626.205 474.84 621.215C470.05 610.04 467.5 597 469.207 567.178C470.985 538.249 469.369 509.214 464.392 480.662C462.964 474.964 461.283 454.659 459.505 433.152L459.489 432.952L459.488 432.948C457.084 403.995 454.096 368.028 449.966 344.799C447.254 329.514 444.04 316.305 440.933 303.534L440.933 303.532L440.887 303.345C437.382 290.977 434.465 280.136 432.68 267.426C431.301 254.698 430.849 243.061 433.419 230.302C434.617 224.836 436.129 219.446 437.949 214.171C438.985 216.343 440.188 218.415 441.549 220.373C443.725 226.223 455.512 253.908 483.757 253.908C516.626 253.908 531.504 218.669 538.655 201.725L543.965 189.207C553.931 165.756 561.12 148.659 562.83 142.206L563.5 139.783L563.505 139.777C564.562 136.306 565.294 132.742 565.692 129.129H597.792C598.948 200.524 612.195 215.362 618.885 218.208L619.079 218.29C619.293 218.378 619.524 218.487 619.728 218.553V218.548C620.423 218.772 621.151 218.882 621.883 218.882H696.516C696.819 218.833 697.123 218.772 697.416 218.69C698.106 218.641 698.786 218.493 699.435 218.257C700.533 217.807 701.538 217.144 702.396 216.294L702.397 216.293C705.296 213.414 713 205.762 713 122.659C713 48.0285 702.453 30.1036 698.509 26.0133L698.507 26.0126L698.402 25.9084C698.277 25.7878 698.141 25.6343 698.031 25.5356C697.738 25.3327 697.429 25.1518 697.11 24.9982C696.252 24.2964 695.201 23.9016 694.113 23.8577C693.804 23.7645 693.485 23.6987 693.166 23.6549H618.538C618.371 23.6549 618.235 23.7426 618.073 23.7536H618.068C617.618 23.7536 617.163 23.8029 616.718 23.8906C616.482 23.951 616.258 24.099 616.027 24.1813V24.1867C615.787 24.2745 615.546 24.3732 615.311 24.4883C604.168 29.6479 598.115 60.2329 597.711 113.408H563.22C563.058 113.014 562.917 112.63 562.739 112.229C560.945 103.637 550.236 100.896 543.874 100.068C540.62 98.5655 536.911 98.5984 533.683 100.156C530.942 98.061 527.662 96.8822 524.277 96.7725C515.933 98.401 508.525 103.385 503.645 110.661C503.205 111.549 502.823 112.465 502.504 113.408H425.335C419.497 111.621 413.637 110.091 408.128 108.786C400.574 106.993 394.475 105.359 390.754 104.323H390.759C395.311 97.37 398.91 89.7819 401.458 81.7809C407.317 64.4385 407.218 45.4931 401.17 28.2223C397.037 16.5542 388.165 7.42544 376.959 3.31829C369.891 0.313579 362.191 -0.656918 354.647 0.499991C347.098 1.6624 339.989 4.91932 334.045 9.931C322.368 19.3784 317.456 30.4655 316.514 49.4923C314.448 66.5891 317.043 83.9427 324.001 99.553C324.623 100.858 325.418 102.3 326.323 103.797C323.059 104.729 316.106 106.643 307.077 108.787C301.573 110.086 295.714 111.621 289.87 113.409H212.701C212.377 112.471 212 111.556 211.56 110.667C206.68 103.391 199.272 98.4016 190.928 96.7731C187.538 96.8828 184.258 98.0617 181.522 100.156C178.336 98.6266 174.679 98.5717 171.451 100.003C165.116 100.288 159.105 103.051 154.617 107.75C153.492 109.247 152.707 110.991 152.31 112.844C152.153 113.02 151.996 113.217 151.844 113.403L115.286 113.409C114.884 60.2391 108.831 29.6488 97.6873 24.4889C97.4519 24.3737 97.2165 24.2751 96.9706 24.1873C96.7352 24.1051 96.5155 23.957 96.28 23.8967V23.8912C95.8301 23.798 95.3698 23.7542 94.9147 23.7487C94.7577 23.7377 94.6217 23.6555 94.4647 23.6555H19.8321C19.513 23.6993 19.1991 23.7651 18.8904 23.8529C18.3307 23.9022 17.7761 24.0174 17.2425 24.2038C16.7664 24.4121 16.3165 24.6808 15.898 24.9933C15.5736 25.1469 15.265 25.3278 14.9668 25.5362C14.8569 25.6349 14.7209 25.7884 14.5954 25.909L14.4907 26.0132C10.541 30.1036 0 48.0284 0 122.659C0 205.761 7.70381 213.413 10.603 216.293L10.6042 216.294C11.4622 217.144 12.4666 217.807 13.5652 218.257C14.2139 218.493 14.894 218.641 15.5845 218.69C15.8775 218.772 16.1809 218.833 16.4843 218.882H91.1158C91.1158 218.882 92.5701 218.772 93.2712 218.553C93.47 218.493 93.7054 218.378 93.9199 218.29L94.1134 218.208C100.804 215.356 114.051 200.518 115.207 129.129H147.804C148.108 132.846 148.84 136.509 149.991 140.035C151.581 145.101 157.383 158.167 164.105 173.289L164.647 174.51C168.825 183.921 173.161 193.689 176.551 201.725C184.236 217.516 194.961 231.46 208.06 242.679C215.264 249.061 224.225 252.872 233.637 253.546C233.977 253.546 234.312 253.541 234.631 253.513C256.284 252.247 271.183 225.034 273.401 220.735V220.74C274.876 218.678 276.163 216.48 277.251 214.166C279.072 219.446 280.589 224.83 281.782 230.302C284.455 243.566 283.715 254.232 282.187 267.693C280.416 279.437 278.369 291.902 275.125 303.347L274.966 304.005C271.9 316.63 268.726 329.703 266.047 344.801C261.916 368.035 258.928 404.01 256.523 432.967L256.508 433.154ZM361.521 280.246C378.302 281.356 402.558 276.214 418.762 271.71C417.669 258.107 416.05 240.121 418.807 226.78C421.406 213.516 426.099 200.806 432.68 189.155H432.682C434.345 186.55 437.322 185.229 440.262 185.788C443.207 186.348 445.551 188.683 446.231 191.737C447.44 197.068 449.171 202.249 451.395 207.206C462.229 202.782 470.945 194.03 475.622 182.872C468.785 169.192 460.723 156.224 451.542 144.144H451.537C441.465 132.799 413.94 126.286 404.854 124.136L404.83 124.131C399.745 122.925 395.314 121.79 391.778 120.852C390.873 128.572 387.807 135.837 382.973 141.732C376.124 148.547 367.048 152.341 357.61 152.341C348.167 152.341 339.09 148.547 332.247 141.732C327.408 135.838 324.348 128.572 323.438 120.852C319.907 121.789 315.47 122.924 310.391 124.131L310.386 124.132C301.321 126.278 273.758 132.802 263.679 144.144C254.498 156.224 246.436 169.191 239.599 182.872C244.27 194.03 252.986 202.787 263.821 207.206C266.044 202.249 267.776 197.067 268.989 191.737C269.669 188.683 272.013 186.347 274.953 185.788C277.893 185.229 280.875 186.55 282.534 189.155C289.119 200.801 293.807 213.517 296.407 226.78C299.169 240.121 299.107 259.807 298.019 273.41C298.019 273.41 344.739 281.362 361.521 280.246ZM254.073 658.79C268.584 658.79 272.737 654.488 275.06 649.835C279.622 642.471 281.303 633.677 279.778 625.144C279.654 624.61 279.547 624.033 279.44 623.459L279.44 623.457L279.437 623.445L279.396 623.221L279.385 623.161L279.378 623.127L279.343 622.942C279.33 622.873 279.317 622.804 279.304 622.736C276.728 623.113 274.132 623.307 271.53 623.301C267.876 623.268 264.236 622.937 260.64 622.308V622.314C259.901 624.469 259.122 626.552 258.265 628.544C255.533 634.449 252.34 640.134 248.726 645.546C246.085 649.42 243.781 653.508 241.828 657.765C245.851 658.641 249.965 658.985 254.073 658.797V658.79ZM292.166 511.921L292.159 506.691L292.159 506.66C292.108 483.582 292.073 468.323 302.536 449.318C305.184 444.509 309.039 438.428 313.497 431.503C300.596 429.381 288.065 425.416 276.3 419.725C276.177 421.183 276.055 422.636 275.934 424.08L275.932 424.1C275.628 427.708 275.329 431.26 275.047 434.69C274.152 451.608 272.354 468.462 269.654 485.184C265.164 511.901 263.73 539.047 265.371 566.087C266.345 578.755 266.144 591.487 264.774 604.116C268.869 604.804 273.048 604.849 277.156 604.252H277.15C276.65 595.843 276.533 586.887 276.533 578.464C277.344 568.541 279.7 558.801 283.522 549.606C288.409 537.593 291.329 524.868 292.172 511.921H292.166ZM349.013 365.871C350.097 361.796 353.789 358.966 358.001 358.966L357.998 358.966C362.21 358.966 365.902 361.796 366.98 365.871C373.002 383.01 381.244 399.286 391.497 414.282C407.844 412.68 423.659 407.618 437.903 399.441C436.131 380.466 434.081 361.796 431.641 348.058C429.049 333.435 425.924 320.583 422.906 308.171L422.802 307.745C421.524 302.482 420.265 297.297 419.077 292.112C372.043 298.493 345.317 298.691 296.922 292.119C295.735 297.303 294.4 302.8 293.122 308.056L293.122 308.053L293.122 308.055L293.122 308.056C290.095 320.51 286.965 333.391 284.359 348.058C281.919 361.796 279.868 380.466 278.097 399.441C292.342 407.618 308.156 412.679 324.503 414.282C334.756 399.284 342.991 383.009 349.013 365.871ZM402.506 431.504C406.964 438.429 410.819 444.51 413.466 449.325C424.55 469.468 426.342 483.771 426.342 510.215C426.932 521.922 429.255 533.473 433.246 544.492C437.25 555.096 439.353 566.329 439.45 577.666C439.211 581.638 439.094 586.143 438.972 590.809L438.951 591.631C438.84 595.921 438.697 600.217 438.503 604.435C442.727 605.181 447.043 605.149 451.254 604.331C449.859 591.631 449.652 578.827 450.631 566.088C452.273 539.048 450.839 511.902 446.348 485.186C443.649 468.461 441.851 451.609 440.956 434.691C440.56 429.882 440.138 424.84 439.703 419.726C427.938 425.417 415.406 429.389 402.506 431.504ZM440.942 649.841C443.266 654.487 447.419 658.796 461.929 658.796L461.929 658.803C466.037 658.991 470.151 658.647 474.174 657.771C472.221 653.514 469.917 649.425 467.276 645.551C463.661 640.14 460.469 634.455 457.737 628.55C456.906 626.61 456.14 624.591 455.42 622.502C451.799 623.203 448.119 623.572 444.427 623.605C441.805 623.611 439.19 623.404 436.594 622.988V622.982C436.567 623.132 436.541 623.287 436.517 623.443C436.505 623.515 436.494 623.587 436.483 623.659L436.455 623.847C436.387 624.298 436.319 624.751 436.224 625.156C434.699 633.689 436.38 642.475 440.942 649.841ZM639.543 121.31C639.48 150.617 638.146 184.086 633.202 203.156L692.553 203.162C694.337 197.548 698.004 179.162 698.004 122.659C698.004 65.9194 691.836 45.6266 689.064 39.3759H631.544C636.76 55.1012 639.553 82.1936 639.553 119.078C639.553 119.431 639.551 119.788 639.548 120.146C639.546 120.505 639.543 120.865 639.543 121.222L639.553 121.266L639.543 121.31ZM624.524 113.412C625.157 91.3874 623.127 69.3609 618.487 47.8678C614.019 69.389 612.073 91.3972 612.695 113.412H624.524ZM504.634 134.068C503.509 132.571 502.604 130.91 501.945 129.134L457.984 129.135C459.595 130.445 461.107 131.877 462.509 133.423C473.146 147.409 482.457 162.444 490.315 178.312H490.32C490.597 178.806 492.203 181.641 494.055 184.903C494.373 184.392 494.687 183.885 494.989 183.397L495.018 183.351L495.025 183.339L495.094 183.227C495.224 183.017 495.351 182.812 495.476 182.611C495.58 182.443 495.682 182.278 495.782 182.118C497.942 178.614 500.213 174.94 502.305 171.875C506.323 165.98 513.59 152.941 517.937 145.002C513.072 141.975 508.599 138.301 504.634 134.068ZM343.354 131.184C347.132 135.066 352.326 137.051 357.6 136.618C362.873 137.051 368.067 135.072 371.839 131.184C374.607 127.724 376.354 123.497 376.872 119.017C371.164 123.003 364.447 125.153 357.588 125.197C350.464 125.005 343.61 122.296 338.138 117.509C338.489 122.526 340.309 127.302 343.354 131.184ZM389.518 47.2769C390.219 56.7299 390.113 67.7018 387.262 76.6937C384.045 86.5413 374.722 109.45 357.595 109.472C347.728 109.472 339.515 96.9215 337.418 92.5243C332.16 80.8069 330.052 67.8014 331.313 54.9213C340.719 50.458 365.485 38.8441 389.518 47.2769ZM361.524 15.6616C354.895 15.7877 348.476 18.1399 343.213 22.3729C338.427 25.9315 334.958 31.1185 333.409 37.0567C350.098 30.2686 368.204 28.2453 385.881 31.1952C382.926 24.6485 377.448 19.7356 370.82 17.6739C367.896 16.3196 364.725 15.6342 361.524 15.6616ZM214.787 169.631C217.407 173.47 220.154 178.185 222.529 182.489C223.496 180.785 224.271 179.409 224.668 178.706L224.674 178.697L224.925 178.251C232.766 162.399 242.069 147.392 252.688 133.426C254.096 131.88 255.608 130.449 257.219 129.139H213.259C212.6 130.915 211.69 132.576 210.565 134.073C206.788 138.142 202.524 141.673 197.879 144.59H197.884C202.885 152.031 210.727 163.677 214.787 169.631ZM14.9965 122.663C14.9965 179.166 18.6638 197.552 20.4477 203.166L79.7984 203.166C74.8547 184.096 73.5206 150.626 73.4578 121.319L73.4474 121.275L73.4578 121.231C73.4526 120.518 73.4474 119.795 73.4474 119.087C73.4474 82.203 76.2358 55.1107 81.4568 39.3853L23.9371 39.3798C21.1645 45.636 14.9965 65.9233 14.9965 122.663ZM100.301 113.422C100.924 91.4084 98.9774 69.3988 94.5098 47.8776C89.8696 69.3707 87.8397 91.3972 88.4727 113.422H100.301ZM88.5145 129.136C88.2529 150.603 89.7283 172.054 92.9247 193.256C98.2659 172.354 100.725 150.767 100.238 129.136H88.5145ZM233.788 237.834C227.86 237.094 222.263 234.583 217.653 230.602C206.291 220.985 196.958 208.988 190.262 195.373C186.694 186.907 182.085 176.533 177.696 166.663C171.721 153.213 165.543 139.303 164.23 135.13C161.99 127.996 162.618 124.553 163.11 123.67C163.134 123.656 163.152 123.638 163.17 123.621C163.188 123.603 163.207 123.585 163.23 123.571H163.236C163.811 123.215 164.8 122.272 164.8 122.272C164.863 122.206 165.006 122.096 165.006 122.096C165.089 122.031 165.172 121.968 165.239 121.888H165.244C165.804 121.214 166.249 120.44 166.563 119.612C166.601 119.514 166.616 119.407 166.631 119.301C166.643 119.217 166.655 119.133 166.678 119.053H166.683C166.892 118.434 167.028 117.787 167.086 117.129C169.356 116.229 171.747 115.698 174.169 115.555C174.938 115.511 175.692 115.352 176.409 115.072C177.073 115.495 177.706 115.977 178.287 116.514C180.238 118.417 183 119.097 185.553 118.296C188.101 117.496 190.057 115.341 190.69 112.632C193.735 114.069 196.466 116.152 198.695 118.757C199.265 119.711 199.584 120.808 199.61 121.937C199.626 122.776 199.359 123.593 198.851 124.245C194.065 128.544 188.875 132.317 183.362 135.513C181.557 136.626 180.275 138.485 179.836 140.629C179.391 142.778 179.825 145.015 181.028 146.814C181.028 146.814 196.299 169.552 202.572 178.764H202.577C207.327 186.216 211.669 193.946 215.582 201.914C216.822 204.458 219.281 206.092 222.007 206.185C222.048 206.188 221.843 205.83 221.636 205.468C221.425 205.099 221.211 204.726 221.253 204.726L222.252 206.19C224.889 206.19 227.332 204.743 228.687 202.374C228.845 202.1 229.109 201.636 229.449 201.036L229.454 201.027C229.799 200.418 230.223 199.671 230.696 198.843C236.974 208.351 245.611 215.885 255.676 220.622C250.423 228.211 242.21 237.335 233.788 237.834ZM548.385 137.992C546.837 143.826 537.65 165.441 530.263 182.806L524.938 195.373C515.553 217.613 504.064 238.191 483.761 238.191L483.766 238.196C478.498 237.938 473.387 236.222 468.961 233.217C464.53 230.218 460.946 226.035 458.561 221.105C469.024 216.368 478.011 208.659 484.514 198.85C485.309 200.256 485.972 201.416 486.349 202.077L486.523 202.381V202.376C487.972 204.777 490.452 206.285 493.156 206.406H493.334C498.66 206.406 501.344 202.063 508.38 190.652L508.6 190.296C510.568 187.109 512.615 183.793 514.511 181.013C520.935 171.576 534.024 147.177 534.578 146.14H534.583C536.577 142.412 535.363 137.691 531.847 135.525C526.333 132.317 521.144 128.539 516.352 124.246C515.845 123.593 515.578 122.776 515.594 121.938C515.625 120.808 515.944 119.706 516.514 118.752C518.743 116.158 521.463 114.075 524.497 112.638L524.524 112.655C525.167 115.347 527.118 117.48 529.65 118.275C532.188 119.075 534.934 118.417 536.891 116.548C537.482 115.994 538.12 115.5 538.8 115.073C539.423 115.314 540.077 115.467 540.736 115.533C543.409 115.78 546.041 116.4 548.552 117.375C548.586 117.474 548.639 117.563 548.692 117.652C548.736 117.726 548.78 117.8 548.813 117.88C548.819 117.894 548.824 117.908 548.828 117.922C548.831 117.931 548.833 117.94 548.835 117.95C548.838 117.96 548.84 117.97 548.842 117.981L548.844 117.989L548.848 118.012L548.854 118.044L548.854 118.045L548.854 118.046C548.864 118.107 548.875 118.168 548.902 118.225C551.429 123.61 550.781 132.542 548.385 137.992ZM624.487 129.137L624.481 129.131L612.763 129.137C612.276 150.767 614.735 172.36 620.076 193.257C623.273 172.053 624.748 150.603 624.487 129.137Z" fill="black"/>
</svg>
